<svg xmlns="http://www.w3.org/2000/svg" width="24" height="24" viewBox="0 0 24 24">
	<g>
		<g>
			<g>
				<path d="M11.978.041C5.363.041 0 5.403 0 12.019 0 17.31 3.432 21.8 8.191 23.384c.599.111.818-.26.818-.576 0-.285-.01-1.23-.016-2.23-3.332.725-4.035-1.413-4.035-1.413-.545-1.384-1.33-1.753-1.33-1.753-1.087-.743.082-.728.082-.728 1.203.085 1.836 1.235 1.836 1.235 1.068 1.83 2.802 1.301 3.485.995.108-.774.418-1.302.761-1.602-2.66-.302-5.457-1.33-5.457-5.919 0-1.308.468-2.376 1.234-3.215-.124-.302-.534-1.52.116-3.17 0 0 1.006-.322 3.295 1.228.955-.265 1.98-.398 2.998-.403 1.018.005 2.043.138 3 .403 2.286-1.55 3.29-1.228 3.29-1.228.653 1.65.243 2.868.119 3.17.768.839 1.232 1.907 1.232 3.215 0 4.6-2.802 5.613-5.47 5.91.43.372.813 1.1.813 2.218 0 1.603-.013 2.893-.013 3.287 0 .319.215.692.822.575 4.757-1.586 8.185-6.074 8.185-11.364C23.956 5.403 18.593.04 11.978.04" transform="translate(-112 -535) translate(112 535) translate(0 .157)" />
			</g>
			<path d="M4.537 17.396c-.027.06-.12.077-.206.036-.087-.039-.135-.12-.107-.18.026-.06.12-.078.206-.037.087.039.137.12.107.18M5.022 17.937c-.057.053-.17.028-.245-.056-.078-.083-.093-.195-.035-.248.06-.053.167-.029.246.055.078.084.094.195.034.249M5.494 18.627c-.073.05-.194.003-.268-.104-.073-.106-.073-.234.002-.285.074-.051.193-.005.268.1.073.109.073.236-.002.289M6.141 19.293c-.066.072-.205.053-.308-.046-.105-.096-.134-.233-.068-.306.067-.072.207-.052.31.046.104.096.136.234.066.306M7.034 19.68c-.03.094-.164.136-.3.096-.135-.04-.224-.15-.196-.245.028-.095.163-.139.3-.096.135.04.224.15.196.245M8.014 19.752c.003.099-.112.18-.254.182-.143.004-.26-.077-.261-.174 0-.1.113-.18.256-.183.142-.003.259.077.259.175M8.926 19.597c.017.096-.082.195-.223.221-.14.026-.268-.034-.286-.13-.017-.098.084-.197.223-.223.141-.024.268.034.286.132" transform="translate(-112 -535) translate(112 535)" />
		</g>
	</g>
</svg>
