<svg xmlns="http://www.w3.org/2000/svg" width="21" height="21" viewBox="0 0 21 21">
	<path d="M21 12.303v7.764h-4.501v-7.244c0-1.82-.651-3.062-2.28-3.062-1.244 0-1.984.837-2.31 1.647-.118.29-.149.692-.149 1.097v7.562H7.258s.06-12.269 0-13.54h4.502v1.919l-.03.044h.03v-.044c.598-.921 1.666-2.237 4.057-2.237 2.962 0 5.183 1.935 5.183 6.094zM2.548 0C1.008 0 0 1.01 0 2.339c0 1.3.978 2.34 2.488 2.34h.03c1.57 0 2.547-1.04 2.547-2.34C5.035 1.01 4.088 0 2.548 0zM.268 20.067h4.5V6.527h-4.5v13.54z" transform="translate(-72 -615) translate(72 615)" />
</svg>
